# xmcd
#
# Track frame offsets:
#	150
#	15336
#	28030
#	38603
#	54295
#	69475
#	81908
#	98276
#	113519
#	128642
#	145873
#
# Disc length: 2140 seconds
# Revision: 0
# Processed by: cddbd v1.5.2PL0 Copyright (c) Steve Scherf et al.
# Submitted via: dBpowerAMP V12.0
#
DISCID=77085a0b
DTITLE=Mipso - Old Time Reverie
DYEAR=2015
DGENRE=Folk
TTITLE0=Marianne
TTITLE1=Down In The Water
TTITLE2=Eliza
TTITLE3=Bad Penny
TTITLE4=Momma
TTITLE5=Father's House
TTITLE6=Captain's Daughter
TTITLE7=Stranger
TTITLE8=Honeybee
TTITLE9=Everyone Knows
TTITLE10=4 Train
EXTD=
EXTT0=
EXTT1=
EXTT2=
EXTT3=
EXTT4=
EXTT5=
EXTT6=
EXTT7=
EXTT8=
EXTT9=
EXTT10=
PLAYORDER=
